<?xml version="1.0" standalone="no"?><!DOCTYPE svg PUBLIC "-//W3C//DTD SVG 1.1//EN" "http://www.w3.org/Graphics/SVG/1.1/DTD/svg11.dtd"><svg t="1569598703952" class="icon" viewBox="0 0 1083 1024" version="1.1" xmlns="http://www.w3.org/2000/svg" p-id="30530" xmlns:xlink="http://www.w3.org/1999/xlink" width="33.84375" height="32"><defs><style type="text/css"></style></defs><path d="M938.947326 846.580507c-104.35508 34.402091-216.689706 38.562633-324.925888 23.255565v120.531515H543.975304C372.741068 959.287719 201.041101 930.815952 29.620573 900.853842V117.554244c172.320944-29.993159 344.890278-59.148 517.149124-89.731086h67.251741v97.555389c108.608768-13.754627 222.123249-12.761064 326.354134 23.938639 39.245707 13.350992 81.968881 43.747786 78.180925 90.352062 0.403635 172.041504 0.403635 344.176155 0 516.341855 3.912151 47.070009-39.928781 77.311559-79.609171 90.569404zM337.655903 316.35983c-26.298349 2.018173-52.410406 3.787956-78.58456 5.681934-32.632308 117.892365-66.786009 235.287948-99.60461 353.149264 21.920466 1.459294 43.840932 2.980687 65.885593 4.688372 6.83074-26.422545 13.568334-52.814041 20.181732-79.360781 34.464189 1.707685 68.959426 2.794394 103.485713 2.918589 7.420668 27.85079 14.71714 55.856825 21.578929 83.83181 25.77052 2.328661 51.696283 4.284737 77.715193 5.930325-37.258582-125.468276-72.995773-251.495431-110.65799-376.839513z m647.709407-32.725455c-40.052976 32.042381-91.625064 42.661077-141.116881 49.926501a904.079503 904.079503 0 0 1-230.226991 0.434683v145.060081c95.288825 12.233235 193.247848 11.674356 287.139476-10.370305 28.782255-8.165839 60.700441-16.673216 80.820075-40.518709 7.172277-47.690986 0.931465-96.375533 3.384321-144.532251z m0 179.058538c-39.804586 31.949234-91.066185 42.56793-140.433807 49.833354a900.943572 900.943572 0 0 1-230.910065 0.558879v145.184276c95.537215 12.07799 193.806726 11.550161 287.915696-10.742892 28.65806-8.165839 60.607294-16.673216 80.292245-40.611854 6.644447-47.659937 0.869367-96.158191 3.135931-144.221763zM613.586755 836.800129a827.761506 827.761506 0 0 0 242.367079-0.931464c43.747786-8.786816 94.202116-15.182872 126.027155-49.67811 7.079131-47.628888 1.024611-96.344484 3.384321-144.345958-40.052976 31.856088-91.407722 42.692126-140.86849 49.833354-76.47324 9.99772-154.002141 10.24611-230.475382 0.465732 0 48.311962 0.310488 96.406582-0.434683 144.656446zM916.561128 175.73973c-97.586437-29.682671-202.158859-30.086305-302.53969-16.300629v138.974512c105.783325 15.928044 216.068729 12.698967 318.002002-21.54788 21.641027-9.407792 48.995036-21.206343 53.466065-47.256302-6.085568-31.949234-42.040101-43.90303-68.928377-53.869701zM295.398461 383.39423c10.090866 53.062431 25.708422 104.758714 38.562633 157.16912-24.839055-0.124195-49.584963-0.248391-74.330872-0.496781 11.363868-52.379357 28.223376-103.54781 35.768239-156.672339z" fill="#A33639" p-id="30531"></path></svg>