<?xml version="1.0" standalone="no"?><!DOCTYPE svg PUBLIC "-//W3C//DTD SVG 1.1//EN" "http://www.w3.org/Graphics/SVG/1.1/DTD/svg11.dtd"><svg t="1569598750128" class="icon" viewBox="0 0 1024 1024" version="1.1" xmlns="http://www.w3.org/2000/svg" p-id="31299" data-spm-anchor-id="a313x.7781069.0.i59" xmlns:xlink="http://www.w3.org/1999/xlink" width="32" height="32"><defs><style type="text/css"></style></defs><path d="M233.3 894.2V647.3h80.5c82.7 0 123.9 40.2 123.9 120.5 0 38.1-11.5 68.9-34.8 91.9-23.3 23-53.1 34.7-89.6 34.7h-80v-0.2z m49.7-204v160.9h27.1c23.6 0 42-7.5 55.5-22.3 13.5-15 20.2-35 20.2-60.4 0-24.5-7.1-43.7-21-57.5-14.1-13.8-32.2-20.6-54.7-20.6H283v-0.1z m194 204V647.3h82.7c25.3 0 44.9 5.1 58.7 15.3 13.8 10.2 20.5 24.3 20.5 42.4 0 13.4-4.3 25.2-12.8 35.2-8.5 10-19.2 17-32.2 20.9v0.7c16.2 2.2 29.3 8.5 39.3 19.2 9.9 10.7 14.9 24 14.9 40 0 22.5-7.5 40.3-22.6 53.6-15.1 13.3-35.6 19.9-61.6 19.9H477v-0.3z m49.6-207.6v61.1h23.6c11.4 0 20.2-2.9 26.8-8.7 6.6-5.8 9.8-13.8 9.8-24.2 0-18.9-13-28.4-39.1-28.4l-21.1 0.2z m0 100.5v67.7h29.5c12.5 0 22.3-3.1 29.3-9.2S596 830.9 596 820c0-10.4-3.5-18.5-10.6-24.3-7.1-5.8-17-8.7-30-8.7l-28.8 0.1z m206 64.4h98.8v42.9H676.5V876c0-12.9 2.2-24.7 6.7-35.2s10.6-20.6 18.4-29.8c7.9-9.2 19.9-19.9 36.4-32.3 15.1-11.9 25.5-22.5 31.6-31.6 6.1-9.2 9-18.9 9-29.3 0-22.3-11.4-33.3-34.3-33.3-20 0-39.1 8.5-57.4 25.5v-46c20.4-14 43.1-20.9 68.6-20.9 23.3 0 41.7 6.3 55.2 18.9 13.5 12.6 20.4 29.9 20.4 52.1 0 12.4-1.9 23.5-5.9 33.3-3.8 9.9-9.6 19.2-17 28.1-7.4 8.7-19.2 19.2-35.6 31.5-15.7 11.9-26.3 21.1-31.7 27.6-5.4 6.5-8.3 11.9-8.3 16.9zM82.1 171.6h173.3v26H82.1z m197.9 0v26h247.1s-25.8-26-58.2-26H280z m296.3 0v26.2h149.9l-8.8-26.2z m397 0H833.6l-8.8 26.2h148.5z m-891.2 51h173.3v26H82.1zM280 248.7h276.8s-2.6-20.6-9-26H280v26z m296.3 0H743l-7.5-26.1H576.3z m397 0v-26.1H815.7l-7.7 26.1zM132.4 272h75v26h-75z m198.1 0h75v26h-75z m148.8 26h75s5.1-13.8 5.1-26h-80.2v26h0.1z m147.5-26v26h133.1l-8.8-26z m164.3 26h134.6v-26H800z m-658.7 24.7h75v26h-75z m198.1 26h192.7s15.6-13.8 20.7-26H330.5v26z m445.1-3.9l-6.4-22.1H626.8v26h75v-15l5.2 15h138.5l5-15v15h75.2v-26H783.1z m-643.2 28.6h75v26h-75z m198.1 26.2h213.4c-5.1-12.4-20.7-26-20.7-26H330.5v26z m296.3-26.2h75v26h-75z m210.8 0H715.9l9.2 26.2h103.6z m11.7 0h75v26h-75z m-716.9 50.8h75v26h-75z m198.1 0h75v26h-75z m223.8 0h-75v26h80.2c-0.1-12.3-5.2-26-5.2-26z m72.5 0h75v26h-75z m194 0h-88l9.1 26.1h69.9z m28.5 0h75v26h-75zM83.4 473.6h173.3v26H83.4z m473.6 0H280v26h267.8c5.2-5.4 9.2-26 9.2-26z m20.7 0h124.1v26H577.7z m224.8 0h-52.9l9.2 26h34.7z m46.8 0h125.5v26H849.3z m-765.9 51h173.3v26H83.4z m443.8 0H280v26h188.9c33.6-0.1 58.3-26 58.3-26z m50.5 0h124.1v26H577.7z m199 25.9l9.3-25.9h-19.7l9.3 25.9z m72.6-25.9h125.5v26H849.3z" fill="#13227a" p-id="31300" data-spm-anchor-id="a313x.7781069.0.i58" class=""></path></svg>