<?xml version="1.0" standalone="no"?><!DOCTYPE svg PUBLIC "-//W3C//DTD SVG 1.1//EN" "http://www.w3.org/Graphics/SVG/1.1/DTD/svg11.dtd"><svg t="1569599119034" class="icon" viewBox="0 0 1536 1024" version="1.1" xmlns="http://www.w3.org/2000/svg" p-id="40189" xmlns:xlink="http://www.w3.org/1999/xlink" width="48" height="32"><defs><style type="text/css"></style></defs><path d="M658.28127723 538.98170398h91.08143689L701.25189273 461.44005259l-88.32540417 140.16567602-40.24732182 0.03273904 107.50838639-168.31670681A25.08896674 25.08896674 0 0 1 701.18606448 422.36310802c8.46523281 0 16.23034012 3.99171301 20.8129317 10.66330108L829.878892 601.63846765l-40.28006086-0.03273904-18.88780558-31.3338967h-92.29540786l-20.12348581-31.29012793z m417.86092176 31.32286698V424.11298396h-34.15540753v160.48612138c0 4.4402555 1.80449939 8.68372656 4.97616047 11.85538765 3.34656114 3.3138221 7.76510733 5.14020589 12.51156925 5.14020588h155.64109217l20.07989214-31.27909817H1076.14202391zM511.47710235 544.14396933a60.02100755 60.02100755 0 0 0 1e-8-120.03098537h-149.37427782v177.49274464h34.12266846V455.39208215h112.90017524a28.68711084 28.68711084 0 0 1 28.72002497 28.73087963 28.70899524 28.70899524 0 0 1-28.72002497 28.7417343l-96.18872866-0.03273903 101.85398487 88.77359649h49.58740506L495.84849546 544.11123029l15.6286069 0.03291413zM152.04050293 601.6057286a88.74085746 88.74085746 0 1 1 0-177.4929197h103.16652309a88.75188719 88.75188719 0 0 1 88.74085747 88.75188717A88.75188719 88.75188719 0 0 1 255.20685096 601.63846765l-103.16652311-0.03273904z m100.86953737-31.27927325a57.43987488 57.43987488 0 0 0 57.45090462-57.46175928 57.43987488 57.43987488 0 0 0-57.45090461-57.46175927H154.32645892a57.47261393 57.47261393 0 0 0 0 114.92351855h98.58393153z m648.17838572 31.27927325a88.75188719 88.75188719 0 1 1 0-177.4929197h122.60108831l-20.09092187 31.2901279h-100.20250111a57.47261393 57.47261393 0 1 0 0 114.92351855h123.04945571l-20.04715308 31.27927325H901.07739629zM1318.59919754 570.32628027a57.43987488 57.43987488 0 0 1-55.2524862-41.75646947h145.89641033l20.09074679-31.29012791-166.0307508-0.01085466a57.46175928 57.46175928 0 0 1 55.29607988-41.87692115l100.14787767 0.01085466 20.12366091-31.28995284H1316.26982289a88.75188719 88.75188719 0 0 0 0 177.49274463h105.3209977l20.04715308-31.27927326h-123.03860107z m138.54693134-127.31463608a15.66152103 15.66152103 0 1 1 31.34475133 0 15.66152103 15.66152103 0 1 1-31.34475133 0z m15.68323032 20.01406388z m-1.88100722-31.79311878c3.07326888 0 4.34186329 0.03273904 5.85101093 0.60155814 3.93743974 1.32339292 4.34186329 4.94342144 4.34186326 6.26681438a8.74937974 8.74937974 0 0 1-0.24037814 1.83723843 6.09173922 6.09173922 0 0 1-2.77791711 3.83887243c-0.22969857 0.17507513-0.36100492 0.28432202-1.00633189 0.52487523l5.19500439 9.29648953h-5.01992924l-4.54967748-8.55277036h-3.02950007v8.54174061h-4.3747774V431.23258929h5.61063275z m1.56394615 10.10551171c1.34527732-0.02188439 2.84357032-0.12027663 3.71859583-1.39990076a3.32467674 3.32467674 0 0 0 0.50299084-1.91392135 2.95299225 2.95299225 0 0 0-1.68422277-2.71226393c-1.00615678-0.39374396-2.03437303-0.39374396-4.10131005-0.39374398h-1.23603043v6.42000509h2.79997658z" fill="#FF0000" p-id="40190"></path></svg>