<?xml version="1.0" standalone="no"?><!DOCTYPE svg PUBLIC "-//W3C//DTD SVG 1.1//EN" "http://www.w3.org/Graphics/SVG/1.1/DTD/svg11.dtd"><svg t="1569598654782" class="icon" viewBox="0 0 1024 1024" version="1.1" xmlns="http://www.w3.org/2000/svg" p-id="29757" xmlns:xlink="http://www.w3.org/1999/xlink" width="32" height="32"><defs><style type="text/css"></style></defs><path d="M521.895997 68.662525C431.991929 164.048476 348.519722 340.736679 322.56428 475.68978c12.419733 24.505474 24.913465 69.652504 30.217351 96.569925-5.457883-23.087504-20.319563-48.052968-36.885208-77.278339l-16.015656 50.138922c20.631557 37.71119 33.175287 102.367801 33.175288 102.367801-5.543881-23.577493-20.655556-48.464959-39.211158-81.264254-9.269801 34.279264-12.977721 57.398767-9.623793 63.038646 21.527537 44.037054 36.979206 135.789083 39.447152 164.222471-2.679942 84.054194 3.819918 171.518315 23.707491 230.495048l6.587858-3.589922C278.007237 747.091949 449.935543 258.294451 675.978687 72.924433 549.895396 199.315718 396.844684 545.484281 359.053496 782.793182c28.441389-86.866134 120.317415-124.223331 120.317415-124.223331s45.089031-55.582806 97.7519-134.9911c-54.136837 11.871745-95.449949 22.595515-133.217138 41.223115 0 0 82.920219-50.492915 154.04469-73.372424 97.831898-154.08469 204.421608-373.021986 97.081915-468.801928-50.24892-46.628998-116.149505-16.231651-173.136281 46.035011z" fill="#26A2C1" p-id="29758"></path></svg>