<?xml version="1.0" standalone="no"?><!DOCTYPE svg PUBLIC "-//W3C//DTD SVG 1.1//EN" "http://www.w3.org/Graphics/SVG/1.1/DTD/svg11.dtd"><svg t="1569592910301" class="icon" viewBox="0 0 1024 1024" version="1.1" xmlns="http://www.w3.org/2000/svg" p-id="6345" xmlns:xlink="http://www.w3.org/1999/xlink" width="32" height="32"><defs><style type="text/css"></style></defs><path d="M796.444 633.363h64.475v-64.474h-64.475z" p-id="6346"></path><path d="M796.444 441.344V189.137L606.814 0H37.927v1008.83h758.518V882.726h189.63V441.344h-189.63zM543.592 63.033h37.926l151.704 151.324v37.85h-189.63V63.033z m189.63 882.764H101.148V63.033h379.26V315.24h252.814v126.104H164.333v441.382h568.889v63.07zM480.408 567.486v-63.071h189.63v63.07h-63.223v252.208h-63.223V567.486h-63.184z m-63.223 63.033v63.032H290.778v126.142h-63.222V504.415h189.63v63.07H290.777v63.034h126.407z m505.667-63.033V693.55H796.444v126.142h-63.222V504.415h189.63v63.07z" p-id="6347"></path></svg>