<?xml version="1.0" standalone="no"?><!DOCTYPE svg PUBLIC "-//W3C//DTD SVG 1.1//EN" "http://www.w3.org/Graphics/SVG/1.1/DTD/svg11.dtd"><svg t="1569592811761" class="icon" viewBox="0 0 1024 1024" version="1.1" xmlns="http://www.w3.org/2000/svg" p-id="5599" xmlns:xlink="http://www.w3.org/1999/xlink" width="32" height="32"><defs><style type="text/css"></style></defs><path d="M1004.390349 263.71584c-42.5984-69.8624-131.92704-92.63616-208.29184-48.54784-107.2896 61.93664-41.49248 227.5072-131.00544 294.88128-0.35328-64.10752-21.25824-122.76224-57.44128-168.35584-46.03392-57.99936-116.80256-94.848-201.4464-94.848-85.90336 0-153.5744 45.45536-197.5552 113.42848-33.41824 51.64544-53.16096 116.29056-56.82688 183.86432-62.2592 19.6608-116.54144-24.0896-148.2752-70.56896-30.0032 184.47872 139.61728 177.8176 167.43424 180.66944 24.17664 2.4832-47.15008 156.45696-5.79072 183.53152 33.05472 21.632 138.73664 19.49184 160.4608-0.25088 26.64448-24.22272 8.27392-97.74592-4.29056-163.88096 82.39616 3.44576 108.96384 4.8128 190.9504-3.56864-8.95488 87.16288-40.32 146.87744-0.3072 169.76384 27.18208 15.54432 139.61728 14.1312 167.69536-14.36672 27.56608-27.97568-36.09088-153.49248-5.16608-177.408 127.03232-98.24768 125.39392-171.65824 177.28512-201.70752 35.59936-20.61824 113.1264 6.0928 154.16832-46.48448 27.58656-35.33824 20.64384-99.66592-1.59744-136.15104z" fill="" p-id="5600"></path></svg>