<?xml version="1.0" standalone="no"?><!DOCTYPE svg PUBLIC "-//W3C//DTD SVG 1.1//EN" "http://www.w3.org/Graphics/SVG/1.1/DTD/svg11.dtd"><svg t="1569599000770" class="icon" viewBox="0 0 1024 1024" version="1.1" xmlns="http://www.w3.org/2000/svg" p-id="38884" data-spm-anchor-id="a313x.7781069.0.i81" xmlns:xlink="http://www.w3.org/1999/xlink" width="32" height="32"><defs><style type="text/css"></style></defs><path d="M696 459.2c-17.6 1.6-30.4 1.6-28.8 0 1.6-1.6 8-17.6 17.6-33.6 27.2-51.2 44.8-115.2 48-161.6l3.2-41.6-22.4-24c-28.8-30.4-60.8-44.8-108.8-48-20.8-1.6-38.4-1.6-40 1.6-1.6 1.6-28.8 4.8-57.6 4.8-33.6 0-60.8 3.2-70.4 8-14.4 6.4-20.8 6.4-38.4 1.6-28.8-8-83.2-8-108.8-1.6-27.2 8-57.6 40-64 68.8-11.2 46.4-3.2 113.6 25.6 198.4 32 94.4 70.4 136 102.4 112 8-6.4 11.2-4.8 20.8 1.6 8 4.8 22.4 8 46.4 8h33.6l3.2 40c4.8 67.2 19.2 88 64 92.8 33.6 3.2 65.6-8 81.6-28.8 12.8-14.4 19.2-40 25.6-91.2l3.2-30.4h17.6c41.6 0 83.2-24 89.6-51.2 1.6-22.4-9.6-28.8-43.2-25.6z m-60.8 60.8c-19.2 0-17.6-6.4-28.8 67.2-3.2 19.2-8 41.6-12.8 49.6-14.4 27.2-73.6 43.2-97.6 25.6-17.6-12.8-24-33.6-27.2-88l-3.2-48-12.8 6.4c-6.4 3.2-22.4 6.4-33.6 6.4-46.4 0-60.8-25.6-20.8-36.8 35.2-9.6 44.8-22.4 19.2-27.2-12.8-3.2-17.6 0-44.8 28.8-27.2 28.8-32 32-44.8 28.8-8-1.6-17.6-6.4-20.8-9.6-32-27.2-83.2-196.8-75.2-256 3.2-30.4 19.2-64 36.8-76.8 6.4-4.8 25.6-11.2 41.6-14.4 24-4.8 36.8-3.2 72 3.2 40 8 44.8 8 62.4 0 14.4-6.4 28.8-8 52.8-6.4 19.2 1.6 40 1.6 46.4-1.6 20.8-6.4 75.2-4.8 102.4 3.2 17.6 4.8 33.6 14.4 48 28.8l22.4 20.8v40c0 46.4-19.2 108.8-51.2 168-9.6 19.2-19.2 36.8-19.2 38.4 0 1.6 16 1.6 35.2 1.6 32-1.6 35.2-1.6 36.8 8 1.6 19.2-41.6 40-83.2 40z" p-id="38885" data-spm-anchor-id="a313x.7781069.0.i77" class="" fill="#0c69a5"></path><path d="M368 356.8c0-83.2 6.4-110.4 28.8-140.8 6.4-8 11.2-17.6 11.2-17.6-1.6-1.6-12.8-4.8-27.2-8-28.8-6.4-60.8-6.4-80 0-28.8 9.6-49.6 36.8-54.4 78.4-8 60.8 44.8 228.8 76.8 246.4 12.8 6.4 22.4 0 46.4-28.8l20.8-24-11.2-14.4c-11.2-14.4-11.2-19.2-11.2-91.2zM563.2 190.4c28.8 20.8 59.2 52.8 70.4 76.8 11.2 24 11.2 28.8 9.6 96 0 44.8-3.2 75.2-8 81.6-4.8 9.6-4.8 11.2 0 8 9.6-6.4 48-89.6 57.6-129.6 19.2-70.4 11.2-97.6-32-121.6-19.2-11.2-28.8-12.8-67.2-14.4-41.6-6.4-41.6-6.4-30.4 3.2z" p-id="38886" data-spm-anchor-id="a313x.7781069.0.i71" class="" fill="#0c69a5"></path><path d="M622.4 459.2c-8-4.8-46.4-84.8-52.8-107.2-9.6-36.8 4.8-59.2 40-60.8 19.2-1.6 20.8-3.2 9.6-24-12.8-24-41.6-52.8-67.2-65.6-27.2-14.4-83.2-19.2-104-11.2-20.8 8-43.2 33.6-52.8 60.8-12.8 33.6-12.8 52.8-1.6 48 14.4-6.4 40-8 51.2-4.8 16 3.2 25.6 24 30.4 60.8 3.2 25.6 1.6 36.8-9.6 67.2-14.4 43.2-14.4 43.2-6.4 43.2 17.6 0 20.8 16 24 84.8 3.2 92.8 12.8 110.4 60.8 102.4 40-6.4 44.8-17.6 56-113.6 6.4-51.2 8-60.8 17.6-68.8 4.8-4.8 6.4-8 4.8-11.2z" p-id="38887" data-spm-anchor-id="a313x.7781069.0.i75" class="" fill="#0c69a5"></path><path d="M436.8 496c-8 8-19.2 16-28.8 17.6-22.4 4.8-17.6 11.2 8 11.2 28.8 0 49.6-14.4 48-30.4 0-14.4-12.8-14.4-27.2 1.6zM448 432c9.6-22.4 12.8-38.4 11.2-64 0-56-19.2-72-59.2-51.2l-17.6 8-1.6 48c-1.6 35.2 0 51.2 6.4 60.8 6.4 14.4 28.8 28.8 41.6 28.8 3.2 0 11.2-14.4 19.2-30.4z m-24-108.8c0-9.6 19.2-8 24 1.6 1.6 3.2-3.2 6.4-11.2 6.4-9.6 0-12.8-1.6-12.8-8zM596.8 307.2c-8 3.2-14.4 9.6-16 16-3.2 12.8 12.8 57.6 30.4 89.6 17.6 28.8 19.2 22.4 19.2-51.2-3.2-62.4-4.8-64-33.6-54.4z m16 17.6c-8 4.8-20.8-1.6-17.6-8 3.2-6.4 22.4-6.4 22.4 0 0 3.2-3.2 6.4-4.8 8zM660.8 483.2c-28.8 0-38.4 1.6-40 6.4-1.6 3.2-1.6 9.6 0 11.2 6.4 9.6 64 1.6 73.6-11.2 3.2-4.8-4.8-4.8-33.6-6.4zM950.4 835.2l-43.2-1.6v-67.2c0-57.6-3.2-67.2-9.6-67.2-6.4 0-6.4 11.2-6.4 75.2V848h54.4c41.6 0 54.4-1.6 52.8-6.4-1.6-3.2-16-4.8-48-6.4zM868.8 729.6c-17.6-25.6-48-36.8-83.2-30.4-36.8 6.4-59.2 35.2-59.2 76.8 0 48 24 73.6 72 76.8 16 1.6 32 0 38.4-3.2 8-4.8 11.2-3.2 20.8 4.8 8 8 12.8 9.6 16 4.8 4.8-4.8 3.2-8-4.8-12.8l-11.2-8 11.2-16c16-24 16-68.8 0-92.8z m-65.6 108.8c-35.2 0-59.2-24-59.2-62.4 0-51.2 52.8-72 78.4-64 28.8 9.6 38.4 28.8 38.4 59.2 0 40-14.4 67.2-57.6 67.2zM65.6 718.4l-40-1.6v64c0 52.8 1.6 64 6.4 64 4.8 0 6.4-6.4 8-25.6l1.6-25.6 33.6-1.6c28.8-1.6 35.2-4.8 41.6-12.8 6.4-8 8-14.4 6.4-27.2-4.8-27.2-12.8-32-57.6-33.6z m36.8 52.8c-8 8-14.4 9.6-36.8 9.6h-25.6v-49.6h27.2c20.8 0 30.4 1.6 36.8 8 9.6 8 9.6 20.8-1.6 32zM667.2 764.8c-33.6-6.4-44.8-12.8-44.8-25.6 0-20.8 9.6-25.6 36.8-25.6 27.2 0 43.2 8 43.2 24 0 4.8 3.2 8 9.6 8 12.8 0 11.2-16-4.8-32-12.8-12.8-16-12.8-44.8-12.8-25.6 0-33.6 1.6-43.2 9.6-9.6 8-12.8 14.4-12.8 27.2 0 25.6 9.6 33.6 51.2 41.6 40 8 48 14.4 48 32 0 14.4-11.2 25.6-41.6 25.6-20.8 0-32-3.2-40-12.8-6.4-6.4-8-11.2-8-17.6 0-4.8-3.2-8-6.4-9.6-11.2-1.6-9.6 19.2-1.6 32 6.4 12.8 30.4 22.4 57.6 22.4 41.6 0 62.4-20.8 56-52.8-3.2-16-16-25.6-54.4-33.6zM147.2 763.2c-24 12.8-28.8 48-8 68.8 8 8 14.4 11.2 30.4 11.2 11.2 0 24-3.2 28.8-6.4 19.2-14.4 20.8-52.8 4.8-67.2-12.8-9.6-41.6-12.8-56-6.4z m48 59.2c-4.8 8-12.8 11.2-25.6 11.2-16 0-32-11.2-32-33.6 0-28.8 40-43.2 57.6-20.8 8 9.6 9.6 30.4 0 43.2zM267.2 795.2c-19.2-4.8-28.8-6.4-28.8-12.8-3.2-17.6 28.8-20.8 43.2-6.4 9.6 11.2 16 11.2 16 1.6S278.4 756.8 260.8 756.8c-9.6 0-20.8 3.2-25.6 8-11.2 8-12.8 25.6-4.8 32 3.2 1.6 14.4 6.4 25.6 8 25.6 4.8 32 9.6 30.4 19.2-1.6 12.8-41.6 14.4-49.6 1.6-8-11.2-17.6-12.8-14.4-1.6 4.8 14.4 16 19.2 40 19.2 25.6 0 38.4-8 38.4-22.4 0-12.8-6.4-19.2-33.6-25.6zM340.8 771.2c4.8 0 9.6-1.6 9.6-4.8 0-3.2-4.8-4.8-9.6-4.8-8 0-9.6-3.2-9.6-12.8 0-9.6-1.6-12.8-6.4-12.8s-6.4 4.8-6.4 12.8c0 9.6-3.2 14.4-8 16-6.4 1.6-8 4.8 1.6 4.8 9.6 3.2 8 6.4 9.6 38.4 1.6 33.6 3.2 33.6 14.4 35.2 14.4 1.6 16-6.4 3.2-9.6-8-1.6-9.6-6.4-9.6-32 3.2-27.2 3.2-30.4 11.2-30.4zM523.2 763.2c-25.6 9.6-33.6 51.2-12.8 70.4 9.6 11.2 19.2 12.8 43.2 11.2 12.8-1.6 36.8-24 27.2-27.2-3.2-1.6-8 3.2-12.8 8-12.8 19.2-54.4 8-54.4-14.4 0-6.4 6.4-6.4 36.8-6.4 33.6 0 35.2-1.6 35.2-11.2 0-4.8-6.4-16-12.8-22.4-14.4-14.4-30.4-16-49.6-8z m19.2 35.2c-32 0-36.8-4.8-20.8-22.4 11.2-11.2 25.6-11.2 40-1.6 4.8 3.2 9.6 11.2 9.6 16 0 8-3.2 8-28.8 8z" p-id="38888" data-spm-anchor-id="a313x.7781069.0.i76" class="" fill="#0c69a5"></path><path d="M432 763.2c-1.6 0-4.8 1.6-4.8 4.8 0 1.6-4.8 1.6-9.6-1.6-16-11.2-38.4-9.6-54.4 6.4-12.8 12.8-12.8 16-11.2 32 4.8 32 25.6 44.8 57.6 33.6 16-4.8 17.6-4.8 17.6 1.6 0 4.8-3.2 12.8-8 17.6-9.6 12.8-36.8 14.4-51.2 1.6-4.8-9.6-12.8-12.8-12.8-3.2 0 20.8 54.4 30.4 72 12.8 8-8 9.6-14.4 9.6-56-1.6-32-3.2-49.6-4.8-49.6z m-35.2 64c-20.8 0-33.6-6.4-33.6-25.6 0-16 3.2-22.4 16-28.8 14.4-8 24-6.4 36.8 6.4 17.6 17.6 11.2 48-19.2 48zM470.4 766.4c-4.8 4.8-8 6.4-8 1.6 0-3.2-1.6-4.8-4.8-4.8-3.2 0-4.8 16-4.8 40s1.6 40 4.8 40c3.2 0 6.4-4.8 4.8-25.6-3.2-30.4 8-46.4 25.6-46.4 6.4 0 11.2-3.2 11.2-6.4 0-9.6-19.2-8-28.8 1.6z" p-id="38889" data-spm-anchor-id="a313x.7781069.0.i79" class="" fill="#0c69a5"></path></svg>