<?xml version="1.0" standalone="no"?><!DOCTYPE svg PUBLIC "-//W3C//DTD SVG 1.1//EN" "http://www.w3.org/Graphics/SVG/1.1/DTD/svg11.dtd"><svg t="1569598592234" class="icon" viewBox="0 0 1024 1024" version="1.1" xmlns="http://www.w3.org/2000/svg" p-id="29524" xmlns:xlink="http://www.w3.org/1999/xlink" width="32" height="32"><defs><style type="text/css"></style></defs><path d="M573.44 768c-51.2 30.72-81.92 30.72-117.76 10.24-40.96-20.48-378.88-174.08-378.88-174.08V716.8c0 10.24 10.24 20.48 35.84 30.72 46.08 25.6 302.08 138.24 343.04 158.72 40.96 20.48 66.56 20.48 117.76-10.24 51.2-30.72 291.84-138.24 337.92-163.84 25.6-15.36 35.84-25.6 35.84-35.84v-112.64c0 5.12-322.56 153.6-373.76 184.32z m0-158.72c-51.2 30.72-81.92 30.72-117.76 10.24-40.96-20.48-378.88-174.08-378.88-174.08v112.64c0 10.24 10.24 20.48 35.84 30.72 46.08 25.6 302.08 138.24 343.04 158.72 40.96 20.48 66.56 20.48 117.76-10.24 51.2-30.72 291.84-138.24 337.92-163.84 25.6-15.36 35.84-25.6 35.84-35.84V430.08s-322.56 153.6-373.76 179.2z m373.76-327.68c0-10.24-10.24-20.48-35.84-25.6-46.08-20.48-286.72-122.88-327.68-143.36-46.08-20.48-66.56-15.36-117.76 5.12S153.6 245.76 112.64 266.24c-25.6 10.24-35.84 20.48-35.84 30.72V409.6s337.92 153.6 378.88 179.2c40.96 20.48 66.56 20.48 117.76-10.24 51.2-30.72 373.76-184.32 373.76-184.32V281.6z m-112.64 5.12l-133.12 56.32-117.76-51.2L716.8 230.4l117.76 56.32z m-245.76 51.2l-61.44 97.28-138.24-61.44 199.68-35.84z m-102.4-148.48l-20.48-40.96 61.44 25.6 56.32-20.48-15.36 40.96 56.32 25.6-76.8 10.24-15.36 46.08-25.6-51.2-87.04-10.24 66.56-25.6z m-153.6 56.32c61.44 0 107.52 20.48 107.52 46.08s-46.08 46.08-107.52 46.08c-61.44 0-107.52-20.48-107.52-46.08s51.2-46.08 107.52-46.08z" fill="#8A190F" p-id="29525"></path></svg>