<?xml version="1.0" standalone="no"?><!DOCTYPE svg PUBLIC "-//W3C//DTD SVG 1.1//EN" "http://www.w3.org/Graphics/SVG/1.1/DTD/svg11.dtd"><svg t="1569593025725" class="icon" viewBox="0 0 1024 1024" version="1.1" xmlns="http://www.w3.org/2000/svg" p-id="7097" xmlns:xlink="http://www.w3.org/1999/xlink" width="32" height="32"><defs><style type="text/css"></style></defs><path d="M911.424 475.488L548.864 112.96a53.44 53.44 0 0 0-75.648 0l-84.224 84.224 63.392 63.392a77.888 77.888 0 0 1 103.808 103.808l103.776 103.776a77.824 77.824 0 1 1-36.704 36.704l-103.776-103.776c-2.464 1.184-5.024 2.24-7.616 3.136v216.512a77.856 77.856 0 1 1-51.904 0v-216.512a77.888 77.888 0 0 1-44.288-106.976l-63.392-63.392-239.968 239.936a53.44 53.44 0 0 0 0 75.648L474.912 912a53.44 53.44 0 0 0 75.648 0l360.864-360.864a53.568 53.568 0 0 0 0-75.648v0.032z" fill="" p-id="7098"></path></svg>