<?xml version="1.0" standalone="no"?><!DOCTYPE svg PUBLIC "-//W3C//DTD SVG 1.1//EN" "http://www.w3.org/Graphics/SVG/1.1/DTD/svg11.dtd"><svg t="1569593541239" class="icon" viewBox="0 0 1024 1024" version="1.1" xmlns="http://www.w3.org/2000/svg" p-id="14728" xmlns:xlink="http://www.w3.org/1999/xlink" width="32" height="32"><defs><style type="text/css"></style></defs><path d="M931.2 912H96c-35.2 0-64-28.8-64-64v-672c0-35.2 28.8-64 64-64h832c35.2 0 64 28.8 64 64v675.2c0 35.2-25.6 60.8-60.8 60.8zM96 176v672h835.2v-672H96z" p-id="14729"></path><path d="M928 384H96c-19.2 0-32-12.8-32-32s12.8-32 32-32h832c19.2 0 32 12.8 32 32s-12.8 32-32 32z" p-id="14730"></path><path d="M224 384c-19.2 0-32-12.8-32-32V160c0-19.2 12.8-32 32-32s32 12.8 32 32v192c0 19.2-12.8 32-32 32zM384 384c-19.2 0-32-12.8-32-32V160c0-19.2 12.8-32 32-32s32 12.8 32 32v192c0 19.2-12.8 32-32 32zM544 384c-19.2 0-32-12.8-32-32V160c0-19.2 12.8-32 32-32s32 12.8 32 32v192c0 19.2-12.8 32-32 32zM384 544H192c-19.2 0-32-12.8-32-32s12.8-32 32-32h192c19.2 0 32 12.8 32 32s-12.8 32-32 32zM672 704H192c-19.2 0-32-12.8-32-32s12.8-32 32-32h480c19.2 0 32 12.8 32 32s-12.8 32-32 32z" p-id="14731"></path></svg>