<?xml version="1.0" standalone="no"?><!DOCTYPE svg PUBLIC "-//W3C//DTD SVG 1.1//EN" "http://www.w3.org/Graphics/SVG/1.1/DTD/svg11.dtd"><svg t="1569599792047" class="icon" viewBox="0 0 1025 1024" version="1.1" xmlns="http://www.w3.org/2000/svg" p-id="49887" xmlns:xlink="http://www.w3.org/1999/xlink" width="32.03125" height="32"><defs><style type="text/css"></style></defs><path d="M1024.512 515.584c0 111.616-32.768 211.456-97.792 300.544-65.024 89.088-148.992 150.528-251.904 184.832-11.776 2.048-20.992 0.512-26.112-4.608-5.632-5.12-8.192-11.776-8.192-19.968v-140.288c0-43.008-11.776-74.752-34.816-94.72 25.088-2.56 48.128-6.656 68.096-11.776 19.968-5.12 40.96-13.824 62.464-26.112s39.424-26.624 53.76-44.032c14.336-17.408 26.112-40.96 35.328-70.144 9.216-29.184 13.824-62.464 13.824-100.352 0-53.76-17.408-99.328-52.736-137.216 16.384-40.448 14.848-85.504-5.12-135.68-12.288-4.096-30.208-1.536-53.76 7.168s-44.032 18.432-61.44 29.184l-25.088 15.872c-41.472-11.776-83.968-17.408-128-17.408-44.032 0-86.528 5.632-128 17.408-7.168-5.12-16.384-10.752-28.16-17.92s-30.208-15.872-55.808-25.6c-25.088-10.24-44.544-12.8-57.344-9.216-19.456 50.176-20.992 95.232-4.608 135.68-34.816 38.4-52.736 83.968-52.736 137.728 0 37.888 4.608 71.168 13.824 99.84 9.216 28.672 20.992 52.224 34.816 70.144 14.336 17.92 32.256 32.768 53.76 44.544s42.496 20.48 62.464 26.112c19.968 5.12 43.008 9.216 68.096 11.776-17.92 15.872-28.672 38.912-32.768 68.608-9.216 4.608-19.456 7.68-30.208 9.728-10.752 2.048-23.552 3.072-37.888 3.072-14.848 0-29.184-4.608-43.52-14.336s-26.624-23.552-36.864-41.472c-8.192-14.336-19.456-25.6-32.256-34.816s-24.064-14.336-32.768-15.872l-13.312-2.048c-9.216 0-15.872 1.024-19.456 3.072-3.584 2.048-4.608 4.608-3.072 7.68 1.536 3.072 3.584 6.144 6.144 9.216 2.56 3.072 5.632 5.632 8.704 8.192l4.608 3.072c9.728 4.608 19.456 12.8 29.184 25.088 9.728 12.288 16.384 23.552 20.992 33.792l6.656 15.36c5.632 16.896 15.36 30.72 29.184 40.96s28.672 16.896 44.544 19.968c15.872 3.072 31.232 4.608 46.08 4.608 14.848 0 27.136-0.512 36.864-2.56l15.36-2.56c0 16.896 0 36.864 0.512 59.392 0 22.528 0.512 34.816 0.512 35.84 0 8.192-3.072 14.848-8.704 19.968s-14.848 6.656-26.624 4.608c-102.912-34.304-186.88-95.744-251.904-184.832C33.792 727.04 1.536 626.688 1.536 515.584c0-92.672 23.04-178.176 68.608-256.512 45.568-78.336 107.52-140.288 186.368-186.368C334.848 27.136 420.352 4.096 513.024 4.096s178.176 23.04 256.512 68.608c78.336 45.568 140.288 107.52 186.368 186.368 45.568 77.824 68.608 163.84 68.608 256.512z m0 0" fill="#02133a" p-id="49888"></path></svg>