<?xml version="1.0" standalone="no"?><!DOCTYPE svg PUBLIC "-//W3C//DTD SVG 1.1//EN" "http://www.w3.org/Graphics/SVG/1.1/DTD/svg11.dtd"><svg t="1569601999782" class="icon" viewBox="0 0 1024 1024" version="1.1" xmlns="http://www.w3.org/2000/svg" p-id="27733" xmlns:xlink="http://www.w3.org/1999/xlink" width="32" height="32"><defs><style type="text/css"></style></defs><path d="M0 512c0 282.848 229.312 512 512 512 282.848 0 512-229.312 512-512 0-282.848-229.312-512-512-512C229.152 0 0 229.152 0 512z" fill="#1296db" p-id="27734"></path><path d="M948.48 449.824c-34.912 45.408-101.056 22.272-131.456 40.032-44.288 26.016-42.88 89.152-151.264 173.952-26.336 20.64 27.968 128.768 4.48 152.928-23.872 24.544-119.84 25.792-143.104 12.384-34.08-19.808-7.36-71.2 0.192-146.304-70.016 7.232-92.672 5.984-162.912 3.104 10.816 56.96 26.336 120.512 3.68 141.376-18.592 16.928-108.608 18.784-136.768 0.192-35.328-23.328 25.504-156 4.896-158.272-23.68-2.464-168.416 3.296-142.88-155.808 27.136 40.032 73.28 77.792 126.368 60.864 3.072-58.208 20-113.92 48.384-158.496 37.568-58.624 95.328-97.824 168.416-97.824 72.256 0 132.48 31.776 171.872 81.728 30.816 39.2 48.8 89.984 48.992 145.088 76.352-58.208 20.224-200.8 111.648-254.24 65.12-37.984 141.248-18.368 177.6 41.888 19.392 31.584 25.312 87.072 1.824 117.408z" fill="#FFFFFF" p-id="27735"></path></svg>