<?xml version="1.0" standalone="no"?><!DOCTYPE svg PUBLIC "-//W3C//DTD SVG 1.1//EN" "http://www.w3.org/Graphics/SVG/1.1/DTD/svg11.dtd"><svg t="1569598505838" class="icon" viewBox="0 0 1024 1024" version="1.1" xmlns="http://www.w3.org/2000/svg" p-id="28742" xmlns:xlink="http://www.w3.org/1999/xlink" width="32" height="32"><defs><style type="text/css"></style></defs><path d="M512 80l-100.8 100.8h72v252l28.8 28.8 32.416-32.384V180.8h68.384z" fill="#EFA724" p-id="28743"></path><path d="M558.816 195.2v223.2l143.968-144L627.2 198.784c0-3.584-68.384-3.584-68.384-3.584z" fill="#932279" p-id="28744"></path><path d="M648.768 195.2l72.032 72 3.584 3.584-3.584 3.616-162.016 165.6v28.8h28.768l162.016-162.016 3.616-3.584 3.552 3.584 72.032 72V198.784C828.8 195.2 648.768 195.2 648.768 195.2z" fill="#932279" p-id="28745"></path><path d="M195.2 195.2v176.384l68.384-68.384 3.616-3.616 3.616 3.616 161.984 162.016h28.8v-25.216l-158.4-161.984-3.616-7.232 3.616-3.584 68.384-68.416L195.2 195.2z" fill="#9CCD2A" p-id="28746"></path><path d="M396.8 195.2l-75.616 75.584 147.616 147.616V195.2z" fill="#9CCD2A" p-id="28747"></path><path d="M753.216 321.216l-144.032 144H828.8V396.8z" fill="#932279" p-id="28748"></path><path d="M270.816 321.216L195.2 396.8v72h219.584z" fill="#9CCD2A" p-id="28749"></path><path d="M180.8 411.2L80 512l100.8 100.8v-72.032h252l28.8-28.768-32.416-32.416H180.8v-7.2z" fill="#932279" p-id="28750"></path><path d="M843.2 411.2v68.384h-251.968L562.4 512l28.832 28.768h251.968v72.032L944 512zM195.2 555.2v72l75.616 75.584 147.584-147.584z" fill="#262577" p-id="28751"></path><path d="M440 555.2l-161.984 161.984-3.616 3.616-3.584-3.616-68.416-68.416v176.416h176.416L310.4 756.768l-3.616-3.552 3.616-3.616 161.984-162.016v-28.768l-32.384-3.616z" fill="#262577" p-id="28752"></path><path d="M558.816 555.2v32.384l161.984 162.016 3.616 3.616-3.616 3.552-68.384 68.416h180v-176.416l-72 72.032-3.648 3.616-3.552-3.616-169.248-165.6h-25.152z" fill="#EFA724" p-id="28753"></path><path d="M605.6 555.2l147.616 147.584L828.8 627.2v-72z" fill="#EFA724" p-id="28754"></path><path d="M512 562.4l-28.8 28.8v251.968h-75.616L512 944l100.8-100.8h-72.032v-248.416c3.648 0-28.768-32.384-28.768-32.384z" fill="#9CCD2A" p-id="28755"></path><path d="M468.8 605.6l-147.616 147.616 72.032 71.968h72v-219.584z" fill="#262577" p-id="28756"></path><path d="M558.816 609.184V828.8h72l71.968-72.032z" fill="#EFA724" p-id="28757"></path></svg>