<?xml version="1.0" standalone="no"?><!DOCTYPE svg PUBLIC "-//W3C//DTD SVG 1.1//EN" "http://www.w3.org/Graphics/SVG/1.1/DTD/svg11.dtd"><svg t="1569601745225" class="icon" viewBox="0 0 1101 1024" version="1.1" xmlns="http://www.w3.org/2000/svg" p-id="23914" xmlns:xlink="http://www.w3.org/1999/xlink" width="34.40625" height="32"><defs><style type="text/css"></style></defs><path d="M1066.633118 0H735.76a128.447312 128.447312 0 0 0-108.197849 59.458065L569.807312 149.729032h531.526882V34.993548A34.873118 34.873118 0 0 0 1066.633118 0z" fill="#13AF2E" p-id="23915"></path><path d="M781.609462 509.591398h-64.584946v91.182796h64.584946c19.492473 0 33.944086-3.56129 43.303226-10.649463 9.135484-7.346237 13.694624-19.113978 13.694624-35.337634 0-15.948387-4.696774-27.475269-14.055914-34.563441-8.877419-7.088172-23.174194-10.632258-42.941936-10.632258z" fill="#13AF2E" p-id="23916"></path><path d="M128.740645 190.623656A129.23871 129.23871 0 0 0 0.00086 320.36129v573.901076a129.23871 129.23871 0 0 0 128.739785 129.737634H972.56a129.255914 129.255914 0 0 0 128.722581-129.737634V190.623656H128.740645z m511.569893 318.967742h-88.894624v233.255914h-44.455914V509.591398h-244.645161v75.217204h132.576344V622.795699h-132.576344v120.051613h-44.455914V471.604301h422.451613v37.987097z m143.965591 129.169892h-67.234409v104.086022h-44.455914V471.604301h112.464517c65.582796 0 98.391398 27.733333 98.391397 83.182796-0.017204 55.982796-33.066667 83.974194-99.165591 83.974193z" fill="#13AF2E" p-id="23917"></path></svg>