<?xml version="1.0" standalone="no"?><!DOCTYPE svg PUBLIC "-//W3C//DTD SVG 1.1//EN" "http://www.w3.org/Graphics/SVG/1.1/DTD/svg11.dtd"><svg t="1569601851165" class="icon" viewBox="0 0 1024 1024" version="1.1" xmlns="http://www.w3.org/2000/svg" p-id="24987" xmlns:xlink="http://www.w3.org/1999/xlink" width="32" height="32"><defs><style type="text/css"></style></defs><path d="M694.4 1.6H163.2c-49.6 0-89.6 40-89.6 89.6v843.2c0 49.6 40 89.6 89.6 89.6h475.2c-20.8-14.4-33.6-36.8-33.6-64V758.4c0-41.6 32-84.8 75.2-84.8h209.6l1.6-475.2L694.4 1.6z m-387.2 544c-6.4 9.6-14.4 16-25.6 20.8-11.2 4.8-24 8-38.4 8-24 0-41.6-4.8-54.4-14.4-12.8-9.6-20.8-24-24-43.2l30.4-4.8c1.6 12.8 8 20.8 16 27.2 8 6.4 19.2 9.6 33.6 9.6 14.4 0 22.4-3.2 28.8-9.6s9.6-11.2 9.6-17.6c0-6.4-3.2-12.8-9.6-16-4.8-3.2-14.4-4.8-30.4-9.6-22.4-6.4-38.4-11.2-46.4-14.4-8-4.8-16-9.6-19.2-17.6-4.8-8-6.4-16-6.4-24s1.6-16 4.8-22.4c3.2-6.4 8-12.8 14.4-17.6 4.8-3.2 14.4-9.6 22.4-12.8 8-3.2 17.6-3.2 27.2-3.2 14.4 0 22.4 1.6 33.6 6.4 6.4 3.2 19.2 12.8 24 20.8 4.8 6.4 8 16 11.2 27.2l-30.4 4.8c-1.6-9.6-4.8-16-11.2-22.4-6.4-4.8-16-8-27.2-8-14.4 0-22.4 1.6-27.2 4.8-6.4 4.8-11.2 11.2-11.2 17.6 0 3.2 0 8 1.6 11.2 3.2 3.2 6.4 6.4 11.2 8 3.2 1.6 12.8 3.2 27.2 8 22.4 6.4 36.8 11.2 44.8 14.4 8 3.2 16 9.6 20.8 17.6 4.8 6.4 8 16 8 25.6 0 8-3.2 17.6-8 25.6z m158.4-128h-91.2v44.8h78.4v32h-78.4v80H336V385.6h129.6v32z m168 0h-56v156.8h-38.4V417.6h-56v-32h150.4v32z m156.8 56c-4.8 8-9.6 14.4-16 19.2-6.4 4.8-12.8 8-19.2 9.6-9.6 1.6-22.4 3.2-40 3.2h-25.6v72h-38.4v-192H712c22.4 0 38.4 1.6 44.8 3.2C768 392 776 398.4 784 408s11.2 22.4 11.2 36.8c0 11.2-1.6 20.8-4.8 28.8z m-96-276.8V51.2L840 196.8H694.4z" p-id="24988" data-spm-anchor-id="a313x.7781069.0.i25" class="" fill="#981909"></path><path d="M736 419.2c-4.8-1.6-14.4-1.6-27.2-1.6h-19.2v52.8h20.8c14.4 0 25.6-1.6 30.4-3.2 4.8-1.6 9.6-4.8 11.2-9.6 3.2-4.8 4.8-9.6 4.8-14.4 0-6.4-1.6-12.8-6.4-17.6-3.2-3.2-9.6-4.8-14.4-6.4z m59.2 448c-11.2 0-22.4 9.6-22.4 22.4 0 9.6 6.4 17.6 14.4 20.8v30.4h14.4v-30.4c8-3.2 14.4-11.2 14.4-20.8 1.6-12.8-8-22.4-20.8-22.4z m0-102.4c-16 0-28.8 12.8-28.8 28.8v28.8H824v-28.8c1.6-16-12.8-28.8-28.8-28.8z" p-id="24989" data-spm-anchor-id="a313x.7781069.0.i28" class="" fill="#a41705"></path><path d="M892.8 705.6H699.2c-32 0-57.6 25.6-57.6 56V960c0 30.4 25.6 56 57.6 56h195.2c32 0 57.6-25.6 57.6-56V761.6c-1.6-30.4-27.2-56-59.2-56z m-9.6 249.6c0 8-6.4 14.4-14.4 14.4h-144c-8 0-14.4-6.4-14.4-14.4V832c0-8 6.4-14.4 14.4-14.4h22.4v-28.8c0-27.2 22.4-51.2 51.2-51.2 27.2 0 51.2 22.4 51.2 51.2v28.8H872c8 0 14.4 6.4 14.4 14.4v123.2z" p-id="24990" data-spm-anchor-id="a313x.7781069.0.i26" class="" fill="#7d1608"></path></svg>