<?xml version="1.0" standalone="no"?><!DOCTYPE svg PUBLIC "-//W3C//DTD SVG 1.1//EN" "http://www.w3.org/Graphics/SVG/1.1/DTD/svg11.dtd"><svg t="1569594754516" class="icon" viewBox="0 0 1200 1024" version="1.1" xmlns="http://www.w3.org/2000/svg" p-id="5083" xmlns:xlink="http://www.w3.org/1999/xlink" width="37.5" height="32"><defs><style type="text/css"></style></defs><path d="M925.060 918.59c68.107-0.002 132.134-26.511 180.293-74.643 48.159-48.133 74.683-112.131 74.683-180.204 0-55.481-17.529-108.221-50.689-152.521-30.74-41.065-73.98-72.431-122.313-88.859 0.193-2.928 0.364-5.94 0.364-9.053 0-78.626-30.636-152.546-86.262-208.144-55.627-55.596-129.585-86.214-208.252-86.214-97.387 0-187.719 47.74-242.828 128.006-14.491-3.328-28.933-5.012-43.015-5.012-95.53 0-176.814 69.996-191.427 163.765-54.596 13.537-104.009 44.917-139.659 88.814-37.433 46.095-58.048 104.239-58.048 163.719 0 69.54 27.095 134.917 76.294 184.089 47.953 47.926 111.308 74.865 178.909 76.201v0.052M570.986 918.005c0.021-70.8-0.361-282.244-3.826-308.78-2.433-18.606-19.881-35.99-21.861-37.911l-0.978-0.948-42.78-20.436-0.798-0.331c-1.258-0.466-4.983-2.422-5.582-5.213-0.29-1.351-0.444-6.542 9.746-16.564 11.482-11.286 100.45-102.256 104.231-106.124l0.251-0.268c3.039-3.393 6.267-5.042 9.868-5.042 6.057 0 12.319 4.528 14.294 6.331 3.463 3.511 72.789 73.755 105.025 105.989 9.747 9.747 9.893 14.946 9.503 16.729-0.671 3.065-4.669 5.213-6.046 5.747-4.197 1.303-33.292 10.56-45.888 20.429-9.601 7.526-17.919 30.891-19.489 35.498l-0.448 1.313 0.412 309.582M925.269 852.748c-0.26-0.017-0.522-0.030-0.785-0.030h-8.332v1.018h-187.201l0.26-215.773c0.17-6.691 2.999-26.236 13.555-29.844 8.366-2.862 43.957-13.54 44.315-13.65l0.724-0.218 0.673-0.345c1.011-0.516 24.787-12.921 28.46-36.222 2.407-15.281-4.27-30.93-19.853-46.511-53.198-53.197-139.485-142.365-140.351-143.259l-0.257-0.254c-0.704-0.668-17.481-16.342-38.273-16.342-12.173 0-22.981 5.15-32.127 15.308-4.285 4.422-123.634 127.577-141.819 145.457-14.902 14.654-21.104 29.451-18.431 43.98 4.509 24.521 33.167 37.345 34.386 37.881l37.369 13.923 0.135 0.257 0.886 0.080c1.517 0.687 11.056 6.034 13.551 32.492 2.832 30.020 2.793 153.066 2.592 213.039h-213.804v-0.334l-8.097-0.228c-51.009-1.434-98.734-22.334-134.382-58.85-35.73-36.597-55.406-84.925-55.406-136.076 0-50.955 19.548-99.143 55.043-135.691 35.401-36.449 82.857-57.467 133.629-59.18l9.266-0.313-1.636-11.537c-0.784-5.431-1.524-10.562-1.524-15.764 0-71.2 57.961-129.126 129.204-129.126 22.583 0 44.448 6.109 64.987 18.155l8.051 4.723 3.781-8.535c36.643-82.721 118.691-136.172 209.026-136.172 126.068 0 228.631 102.506 228.631 228.501 0 18.381-2.469 37.387-7.339 56.489l-2.422 9.503 9.77 0.853c46.358 4.054 89.322 25.18 120.971 59.489 31.844 34.516 49.38 79.404 49.38 126.391 0 102.887-83.69 186.603-186.609 186.716z" p-id="5084"></path><path d="M570.986 918.005h105.76v1.205h-105.76v-1.205z" p-id="5085"></path></svg>