<?xml version="1.0" standalone="no"?><!DOCTYPE svg PUBLIC "-//W3C//DTD SVG 1.1//EN" "http://www.w3.org/Graphics/SVG/1.1/DTD/svg11.dtd"><svg t="1569599400145" class="icon" viewBox="0 0 1024 1024" version="1.1" xmlns="http://www.w3.org/2000/svg" p-id="43821" xmlns:xlink="http://www.w3.org/1999/xlink" width="32" height="32"><defs><style type="text/css"></style></defs><path d="M511.658667 101.461333a413.866667 413.866667 0 0 0-413.909334 413.909334c0 228.565333 185.301333 413.866667 413.909334 413.866666s413.952-185.301333 413.952-413.866666c-0.042667-228.608-185.344-413.909333-413.952-413.909334z m0 714.325334a300.458667 300.458667 0 0 1 0-600.832 300.416 300.416 0 0 1 0 600.832z" p-id="43822" fill="#a41705" data-spm-anchor-id="a313x.7781069.0.i107" class=""></path><path d="M640.256 127.146667h-257.194667L412.842667 0h197.589333z" p-id="43823" fill="#a41705"></path><path d="M640.256 127.146667h-257.194667L412.842667 0h197.589333z" p-id="43824" fill="#a41705"></path><path d="M640.597333 127.146667h-257.237333L413.184 0h197.546667zM242.986667 208.213333l-128.597334 222.762667-95.189333-89.429333 98.773333-171.093334zM114.389333 593.024l128.597334 222.762667-125.013334 37.802666-98.773333-171.136zM383.36 896.853333h257.237333L610.816 1024h-197.632zM780.928 815.786667l128.554667-222.762667 95.36 89.386667-98.858667 171.136zM909.482667 430.976l-128.554667-222.762667 125.056-37.802666 98.773333 171.093333zM561.237333 580.821333c-13.909333 10.666667-31.104 17.237333-50.005333 17.237334a82.730667 82.730667 0 1 1 82.688-82.730667c0 4.48-0.64 8.874667-1.322667 13.184l124.330667 74.026667a223.274667 223.274667 0 0 0-205.696-310.528 223.36 223.36 0 0 0 0 446.72c70.570667 0 132.650667-33.322667 173.568-84.352l-123.562667-73.557334z" p-id="43825" fill="#a41705" data-spm-anchor-id="a313x.7781069.0.i105" class=""></path><path d="M717.653333 602.538667l88.021334 52.778666s80.256-132.565333 9.685333-297.770666-154.496-150.058667-154.496-150.058667l-28.672 29.184s40.917333 34.816 14.762667 63.957333c-16.170667 13.909333-19.413333 17.749333-60.928 8.362667-26.410667-5.973333 0 39.509333 0 39.509333l131.626666 254.037334z" p-id="43826" fill="#a41705"></path></svg>