<?xml version="1.0" standalone="no"?><!DOCTYPE svg PUBLIC "-//W3C//DTD SVG 1.1//EN" "http://www.w3.org/Graphics/SVG/1.1/DTD/svg11.dtd"><svg t="1569599891839" class="icon" viewBox="0 0 1024 1024" version="1.1" xmlns="http://www.w3.org/2000/svg" p-id="50817" xmlns:xlink="http://www.w3.org/1999/xlink" width="32" height="32"><defs><style type="text/css"></style></defs><path d="M224 224v192h192V224H224z m0-64h192a64 64 0 0 1 64 64v192a64 64 0 0 1-64 64H224a64 64 0 0 1-64-64V224a64 64 0 0 1 64-64zM224 608v192h192v-192H224z m0-64h192a64 64 0 0 1 64 64v192a64 64 0 0 1-64 64H224a64 64 0 0 1-64-64v-192a64 64 0 0 1 64-64zM608 224v192h192V224h-192z m0-64h192a64 64 0 0 1 64 64v192a64 64 0 0 1-64 64h-192a64 64 0 0 1-64-64V224a64 64 0 0 1 64-64z" fill="#2B82D8" p-id="50818"></path><path d="M772.192 591.2l108.608 108.608a51.2 51.2 0 0 1 0 72.416l-108.608 108.608a51.2 51.2 0 0 1-72.416 0l-108.608-108.608a51.2 51.2 0 0 1 0-72.416l108.608-108.608a51.2 51.2 0 0 1 72.416 0z" fill="#CAE705" p-id="50819"></path><path d="M704 568.224L568.224 704 704 839.776 839.776 704 704 568.224z m45.248-45.248l135.776 135.776a64 64 0 0 1 0 90.496l-135.776 135.776a64 64 0 0 1-90.496 0l-135.776-135.776a64 64 0 0 1 0-90.496l135.776-135.776a64 64 0 0 1 90.496 0z" fill="#2B82D8" p-id="50820"></path></svg>