<?xml version="1.0" standalone="no"?><!DOCTYPE svg PUBLIC "-//W3C//DTD SVG 1.1//EN" "http://www.w3.org/Graphics/SVG/1.1/DTD/svg11.dtd"><svg t="1569600600586" class="icon" viewBox="0 0 1024 1024" version="1.1" xmlns="http://www.w3.org/2000/svg" p-id="4721" xmlns:xlink="http://www.w3.org/1999/xlink" width="32" height="32"><defs><style type="text/css"></style></defs><path d="M1006.358052 512c0-273.066667-221.291386-494.358052-494.358052-494.358052C239.316854 17.641948 18.025468 238.933333 17.641948 511.616479v382.370038c0 62.130337 50.241199 111.988015 112.371535 111.988015h381.986517c273.066667 0 494.358052-220.907865 494.358052-493.974532" fill="#294172" p-id="4722"></path><path d="M708.362547 141.902622c-18.025468-4.602247-31.83221-6.903371-51.39176-6.903371-128.09588 0-232.029963 103.934082-232.029963 232.029962v123.110113H327.910112c-30.298127 0-54.843446 23.778277-54.843445 54.076404 0 29.914607 24.161798 54.076404 54.076404 54.076405h80.539326c9.588015 0 17.258427 7.670412 17.258427 17.258427v106.235206c0 67.499625-54.843446 122.343071-122.343071 122.343071-23.011236 0-28.380524-3.068165-44.104869-3.068165-32.982772 0-54.843446 21.860674-54.843446 52.158802 0 24.928839 21.477154 46.405993 47.556555 53.309363 18.025468 4.602247 31.83221 6.903371 51.39176 6.903371 128.09588 0 232.029963-103.934082 232.029962-232.029963V598.292135h97.030712c30.298127 0 54.843446-23.778277 54.843446-54.076405 0-29.914607-24.161798-54.076404-54.076405-54.076404h-80.539326c-9.588015 0-17.258427-7.670412-17.258427-17.258427V366.645693c0-67.499625 54.843446-122.343071 122.343072-122.343071 23.011236 0 28.380524 3.068165 44.104868 3.068165 32.982772 0 54.843446-21.860674 54.843446-52.158802 0-24.928839-21.477154-46.405993-47.556554-53.309363z" fill="#FFFFFF" p-id="4723"></path><path d="M920.832959 920.832959v-20.710113l-9.204495 21.477154-9.204494-21.477154v20.710113h-5.369288v-32.599251h5.369288l9.204494 20.710112 8.820974-20.710112h5.752809v32.599251h-5.369288z m-38.35206-27.229963v26.846442h-5.369289v-26.846442h-9.204494v-5.369288h23.778277v5.369288" fill="#3C6EB4" p-id="4724"></path></svg>