<?xml version="1.0" standalone="no"?><!DOCTYPE svg PUBLIC "-//W3C//DTD SVG 1.1//EN" "http://www.w3.org/Graphics/SVG/1.1/DTD/svg11.dtd"><svg t="1569601418034" class="icon" viewBox="0 0 1024 1024" version="1.1" xmlns="http://www.w3.org/2000/svg" p-id="18164" xmlns:xlink="http://www.w3.org/1999/xlink" width="32" height="32"><defs><style type="text/css"></style></defs><path d="M689.3056 361.6256A231.2704 231.2704 0 0 0 512 279.4496c-23.1936 0-43.6736 35.328-56.832 90.0096-5.12 21.8112-9.216 46.8992-11.8784 73.8304-2.1504 21.504-3.2256 44.7488-3.2256 68.7104 0 23.9616 1.024 46.8992 3.2256 68.7104 21.8112 2.1504 44.7488 3.2256 68.7104 3.2256 23.9616 0 46.8992-1.024 68.7104-3.2256 47.7184-4.608 88.9344-13.7216 118.016-25.856 28.8768-11.8784 45.824-26.6752 45.824-42.8544a231.3728 231.3728 0 0 0-55.2448-150.3744zM512 0C229.5808 0 0 229.5808 0 512s229.5808 512 512 512 512-229.5808 512-512S794.4192 0 512 0z m192.4096 642.7136l-12.6464 1.5872a1409.536 1409.536 0 0 1-179.5072 11.0592 1409.536 1409.536 0 0 1-179.712-11.0592 1165.568 1165.568 0 0 1-7.8336-132.608 1114.9824 1114.9824 0 0 1 7.8336-132.2496c0.8192-5.9392 1.3312-11.8784 2.1504-17.8176C360.0384 178.688 429.824 46.8992 512 46.8992A465.2032 465.2032 0 0 1 977.1008 512c0 58.2144-111.8208 108.032-272.6912 130.7136z" fill="#008CDB" p-id="18165"></path></svg>