<?xml version="1.0" standalone="no"?><!DOCTYPE svg PUBLIC "-//W3C//DTD SVG 1.1//EN" "http://www.w3.org/Graphics/SVG/1.1/DTD/svg11.dtd"><svg t="1569600256271" class="icon" viewBox="0 0 1024 1024" version="1.1" xmlns="http://www.w3.org/2000/svg" p-id="51680" xmlns:xlink="http://www.w3.org/1999/xlink" width="32" height="32"><defs><style type="text/css"></style></defs><path d="M590.208 540.248c-16.52 0.224 3.128 8.504 24.696 11.832a219.624 219.624 0 0 0 16.184-13.928c-13.432 3.28-27.096 3.352-40.88 2.096m88.688-22.104c9.832-13.576 17.016-28.448 19.536-43.824-2.208 10.952-8.152 20.424-13.76 30.408-30.88 19.448-2.904-11.544-0.016-23.328-33.2 41.8-4.56 25.064-5.76 36.744m32.744-85.184c1.992-29.76-5.864-20.352-8.504-9 3.072 1.608 5.52 20.976 8.504 9M527.552 26.264c8.816 1.584 19.048 2.8 17.616 4.896 9.648-2.104 11.84-4.048-17.616-4.896m17.616 4.904l-6.232 1.288 5.8-0.512 0.432-0.776m274.976 413.072c0.984 26.72-7.824 39.688-15.752 62.632l-14.288 7.136c-11.68 22.704 1.136 14.416-7.224 32.472-18.248 16.216-55.368 50.76-67.248 53.904-8.672-0.184 5.872-10.224 7.776-14.168-24.416 16.784-19.592 25.176-56.944 35.376l-1.088-2.44c-92.128 43.336-220.08-42.544-218.392-159.728-0.984 7.448-2.792 5.576-4.84 8.592-4.752-60.296 27.848-120.856 82.824-145.568 53.776-26.632 116.816-15.704 155.336 20.192-21.152-27.72-63.272-57.096-113.184-54.344-48.888 0.776-94.624 31.84-109.88 65.568-25.056 15.776-27.96 60.8-38.872 69.024-14.68 107.928 27.624 154.544 99.184 209.4 11.256 7.592 3.168 8.744 4.696 14.52-23.776-11.136-45.552-27.944-63.448-48.52 9.488 13.912 19.744 27.432 33 38.048-22.424-7.592-52.368-54.32-61.12-56.224 38.656 69.192 156.792 121.352 218.664 95.48-28.632 1.048-64.992 0.584-97.16-11.304-13.504-6.952-31.872-21.352-28.592-24.056 84.424 31.552 171.648 23.904 244.688-34.664 18.584-14.48 38.888-39.096 44.752-39.44-8.84 13.288 1.504 6.4-5.28 18.128 18.528-29.864-8.04-12.168 19.152-51.584l10.048 13.832c-3.736-24.784 30.784-54.888 27.28-94.096 7.92-11.992 8.832 12.896 0.432 40.488 11.656-30.6 3.072-35.52 6.072-60.776 3.232 8.496 7.48 17.504 9.664 26.464-7.6-29.568 7.8-49.808 11.6-66.984-3.736-1.664-11.712 13.072-13.536-21.856 0.272-15.168 4.224-7.944 5.744-11.68-2.984-1.72-10.792-13.344-15.552-35.648 3.448-5.24 9.208 13.584 13.912 14.36-3.024-17.736-8.224-31.256-8.424-44.872-13.704-28.632-4.848 3.824-15.968-12.288-14.584-45.496 12.104-10.56 13.904-31.224 22.104 32.024 34.712 81.664 40.496 102.216-4.416-25.064-11.544-49.344-20.256-72.84 6.712 2.832-10.816-51.568 8.728-15.544-20.872-76.8-89.328-148.552-152.304-182.224 7.696 7.048 17.432 15.912 13.944 17.296-31.32-18.648-25.816-20.104-30.296-27.984-25.52-10.376-27.192 0.832-44.088 0.024-48.096-25.504-57.368-22.8-101.624-38.784l2.016 9.416c-31.872-10.616-37.128 4.024-71.56 0.032-2.104-1.64 11.032-5.92 21.84-7.496-30.8 4.064-29.36-6.072-59.504 1.12 7.432-5.208 15.272-8.656 23.2-13.096-25.112 1.528-59.96 14.624-49.208 2.712-40.968 18.288-113.744 43.944-154.576 82.24l-1.288-8.584c-18.712 22.472-81.6 67.096-86.608 96.176l-5 1.168c-9.744 16.48-16.032 35.168-23.76 52.136-12.736 21.704-18.672 8.352-16.856 11.752-25.056 50.792-37.496 93.464-48.24 128.456 7.664 11.456 0.176 68.912 3.08 114.912-12.576 227.152 159.424 447.696 347.44 498.632 27.56 9.84 68.536 9.472 103.392 10.488-41.128-11.768-46.448-6.224-86.504-20.2-28.912-13.608-35.24-29.152-55.712-46.912l8.112 14.32c-40.152-14.2-23.344-17.584-56.016-27.928l8.664-11.296c-13.016-0.984-34.472-21.92-40.336-33.528l-14.232 0.56c-17.104-21.104-26.216-36.304-25.552-48.088l-4.6 8.192c-5.216-8.952-62.92-79.144-32.984-62.8-5.568-5.096-12.96-8.28-20.976-22.848l6.096-6.968c-14.416-18.528-26.52-42.296-25.6-50.208 7.68 10.384 13.016 12.32 18.296 14.104-36.384-90.28-38.424-4.976-65.984-91.896l5.832-0.472c-4.472-6.736-7.184-14.048-10.776-21.216l2.528-25.288c-26.192-30.288-7.328-128.784-3.544-182.808 2.624-21.968 21.864-45.352 36.504-82.016l-8.912-1.536c17.048-29.736 97.336-119.424 134.52-114.808 18.008-22.632-3.568-0.088-7.088-5.784 39.56-40.952 52-28.936 78.704-36.296 28.8-17.096-24.712 6.664-11.064-6.52 49.784-12.712 35.28-28.904 100.224-35.36 6.856 3.896-15.896 6.016-21.608 11.08 41.48-20.288 131.264-15.672 189.576 11.264 67.664 31.616 143.688 125.104 146.688 213.048l3.416 0.912c-1.728 34.96 5.352 75.392-6.92 112.528l8.344-17.608M409.864 562.928l-2.32 11.584c10.856 14.76 19.48 30.744 33.336 42.264-9.968-19.472-17.384-27.52-31.016-53.848m25.664-1.008c-5.744-6.36-9.152-14.008-12.96-21.632 3.648 13.4 11.104 24.912 18.04 36.624l-5.08-14.992m454.28-98.744l-2.432 6.096a293.76 293.76 0 0 1-28.792 91.896 288.856 288.856 0 0 0 31.224-97.992M530.824 18.344c11.168-4.104 27.464-2.248 39.312-4.936-15.44 1.296-30.816 2.072-46 4.024l6.688 0.912M138.608 226.896c2.576 23.832-17.936 33.08 4.536 17.368 12.048-27.12-4.704-7.48-4.536-17.368M112.2 337.2c5.168-15.888 6.112-25.44 8.088-34.624-14.304 18.28-6.584 22.184-8.088 34.624" fill="#A80030" p-id="51681"></path></svg>