<?xml version="1.0" standalone="no"?><!DOCTYPE svg PUBLIC "-//W3C//DTD SVG 1.1//EN" "http://www.w3.org/Graphics/SVG/1.1/DTD/svg11.dtd"><svg t="1569601513322" class="icon" viewBox="0 0 1024 1024" version="1.1" xmlns="http://www.w3.org/2000/svg" p-id="21113" xmlns:xlink="http://www.w3.org/1999/xlink" width="32" height="32"><defs><style type="text/css"></style></defs><path d="M953.6 96c44.8 44.8-83.2 256-108.8 275.2-25.6 25.6-76.8 0-128-44.8s-70.4-102.4-44.8-128c25.6-19.2 230.4-153.6 281.6-102.4z m-665.6 44.8C211.2 102.4 108.8 57.6 76.8 89.6s12.8 134.4 57.6 211.2c38.4-64 89.6-115.2 153.6-160z m588.8 217.6c6.4 25.6 6.4 44.8-6.4 51.2-25.6 25.6-96 0-153.6-64l-12.8-12.8c-25.6-25.6-38.4-44.8-51.2-70.4-25.6-38.4-25.6-70.4-12.8-89.6 6.4-6.4 25.6-12.8 44.8-6.4 12.8-6.4 25.6-12.8 38.4-25.6-64-32-128-51.2-198.4-51.2a428.8 428.8 0 0 0 0 857.6C768 960 960 768 960 531.2c0-76.8-19.2-147.2-57.6-211.2-6.4 12.8-19.2 25.6-25.6 38.4z" fill="#076194" p-id="21114"></path></svg>