<?xml version="1.0" standalone="no"?><!DOCTYPE svg PUBLIC "-//W3C//DTD SVG 1.1//EN" "http://www.w3.org/Graphics/SVG/1.1/DTD/svg11.dtd"><svg t="1569601349309" class="icon" viewBox="0 0 1285 1024" version="1.1" xmlns="http://www.w3.org/2000/svg" p-id="17577" xmlns:xlink="http://www.w3.org/1999/xlink" width="40.15625" height="32"><defs><style type="text/css"></style></defs><path d="M189.796219 650.029963A221.281669 221.281669 0 0 1 1.36544 415.65613a395.897404 395.897404 0 0 1 179.274296-271.160405A730.912228 730.912228 0 0 1 654.045964 2.008001a1099.902424 1099.902424 0 0 1 298.790494 50.521295c-9.156483-82.729626 101.122912-9.156483 147.065966-13.815044 59.758099 18.393286 142.487725 32.12801 160.64005 101.122912 27.549769 45.943054 41.364813 110.279394-32.12801 119.516197-87.307867 32.12801-170.037493-32.12801-243.610636-68.914581 9.156483 27.549769 13.815044 55.179857 45.943054 59.758098a242.004236 242.004236 0 0 0 229.795592 22.971527c55.179857-18.393286-13.815044 68.914582-45.943054 59.758099a574.93074 574.93074 0 0 1-280.397208 18.393286c-78.151384 0-59.758099 105.701153-27.549769 151.644207 18.393286 27.549769 32.12801 55.179857-9.156483 27.549769-68.914582-18.393286-110.279394-78.151384-160.64005-124.094439a136.945643 136.945643 0 0 0-192.76806 4.578241 245.136717 245.136717 0 0 0-9.156483 114.937956c-27.549769-13.815044-55.179857-27.549769-78.151384-41.364813a222.165189 222.165189 0 0 0-239.032395-188.430778 136.544043 136.544043 0 0 0-119.516197 183.852537 138.471723 138.471723 0 0 0 188.430779 78.151384 81.605146 81.605146 0 0 0-32.12801-151.644207c-68.914582-18.393286-68.914582 91.966429 0 59.758099 73.573143 36.786571-45.943054 91.886109-78.151385 45.943054a89.476508 89.476508 0 0 1 18.393286-156.302769 148.190446 148.190446 0 0 1 197.667582 151.644208 168.672053 168.672053 0 0 1-202.245824 142.487724z m1001.992313-418.226371a75.018903 75.018903 0 1 0-73.573143-4.578241 61.926739 61.926739 0 0 0 73.573143 4.578241z m-50.521295-18.393285c-82.729626-27.549769-4.578241-147.065966 55.179857-87.307868 36.706251 41.364813-4.658561 110.279394-55.179857 87.307868z m41.364813-50.521296c22.971527-55.179857-87.307867 0-13.815045 4.578241h9.156483zM392.042043 1012.835517c-73.573143-9.156483-73.573143-96.38403-68.914582-151.644208a169.394933 169.394933 0 0 1 4.578241-68.914581c55.179857-50.521296 87.307867 32.12801 73.573143 82.729625 4.578241 18.393286-4.578241 45.943054 4.578242 64.256021 13.815044 22.971527 45.943054 9.156483 68.914581 13.815044 22.971527 0 50.521296 9.156483 64.25602-13.815044a766.57432 766.57432 0 0 1 9.156483-147.065966c78.151384-45.943054 78.151384 68.914582 68.914582 114.937955a373.648757 373.648757 0 0 1-4.578242 101.122912c-32.12801 41.364813-59.758099-13.815044-91.886108-9.156483a238.470155 238.470155 0 0 1-128.59236 13.734725z m-376.861558-4.578242c-9.156483-13.815044-22.971527-68.914582 13.815044-59.758099h156.302769c55.179857-64.25602-45.943054-73.573143-91.886109-64.25602A85.862107 85.862107 0 0 1 6.104322 769.3052c9.156483-59.758099 78.151384-73.573143 128.51204-68.914581 41.364813 4.578241 133.331242-22.971527 114.937956 50.521296 0 22.971527-36.786571 4.578241-55.179857 9.156483-41.364813 4.578241-128.51204-18.393286-114.937956 50.521295 50.521296 32.12801 133.331242-9.156483 179.274296 41.364813a112.448035 112.448035 0 0 1-36.786572 156.302769c-27.549769 13.815044-59.758099 4.578241-91.886108 9.156483H19.758726a16.064005 16.064005 0 0 0-4.578241-8.835203z m666.656208 0c-9.156483-13.815044-22.971527-68.914582 13.815044-59.758099h156.061809c55.179857-59.758099-36.786571-78.151384-82.729626-64.25602a85.460507 85.460507 0 0 1-96.38403-110.279394c9.156483-68.914582 87.307867-78.151384 142.487725-73.573143a301.521374 301.521374 0 0 1 91.886108 4.578241c18.393286 9.156483 27.549769 68.914582 0 59.758099a787.136246 787.136246 0 0 0-147.065966 4.578241c-50.521296 78.151384 78.151384 50.521296 119.516198 59.758099 68.914582 4.578241 73.573143 91.886109 55.179857 142.487725a86.665307 86.665307 0 0 1-87.307867 45.943054H695.410777a56.866578 56.866578 0 0 1-13.815044-8.915523z m459.591184-124.094439c45.943054-4.578241 96.38403 13.815044 133.331241-13.815044 18.393286-55.179857 18.393286-142.487725-45.943054-165.459252a651.556044 651.556044 0 0 0-188.430779 4.578242c-59.758099 27.549769-45.943054 105.701153-45.943054 156.302769s-4.578241 119.516197 55.179857 142.487724a888.339478 888.339478 0 0 0 156.302769 4.578242c36.786571 4.578241 32.12801-41.364813 32.12801-64.256021h-101.363872c-50.521296 13.815044-73.573143-18.393286-64.25602-64.25602h68.914582z m-68.914582-110.279394c36.786571-18.393286 137.909483-32.12801 137.909483 32.12801v18.393286h-110.520354c-36.786571 9.477763-36.786571-22.650247-27.549769-50.280336z" fill="#81C242" p-id="17578"></path></svg>